<?xml version="1.0" standalone="no"?>
<!DOCTYPE svg PUBLIC "-//W3C//DTD SVG 20010904//EN"
 "http://www.w3.org/TR/2001/REC-SVG-20010904/DTD/svg10.dtd">
<svg version="1.0" xmlns="http://www.w3.org/2000/svg"
 width="100.000000pt" height="100.000000pt" viewBox="0 0 100.000000 100.000000"
 preserveAspectRatio="xMidYMid meet">
<metadata>
Created by potrace 1.11, written by Peter Selinger 2001-2013
</metadata>
<g transform="translate(0.000000,100.000000) scale(0.100000,-0.100000)"
fill="#000000" stroke="none">
<path d="M425 869 c-129 -20 -236 -90 -251 -166 -3 -17 -12 -34 -20 -37 -21
-8 -34 -48 -21 -64 6 -8 12 -24 14 -35 2 -12 12 -28 23 -36 26 -17 26 -31 0
-31 -20 0 -22 -5 -22 -35 0 -47 2 -54 22 -50 27 5 25 -7 -4 -34 -20 -19 -23
-28 -15 -48 6 -16 5 -31 -2 -45 -22 -41 -22 -76 0 -88 12 -6 21 -21 21 -35 0
-13 6 -27 12 -32 19 -11 599 -11 626 1 20 9 26 19 23 39 -1 5 8 16 20 26 28
23 28 69 0 92 -12 10 -17 19 -12 21 5 1 10 10 11 18 5 33 -1 49 -20 55 -26 8
-25 24 2 34 17 6 22 16 23 44 0 32 -2 37 -22 37 -27 0 -30 15 -5 29 9 5 23 28
30 52 12 39 11 45 -7 70 -12 16 -21 34 -21 42 0 27 -54 94 -96 120 -83 50
-203 72 -309 56z"/>
</g>
</svg>
